# AST/ASF file generated using VICON BodyLanguage
# -----------------------------------------------
:version 1.10
:name VICON
:units
  mass 1.0
  length 0.45
  angle deg
:documentation
   .ast/.asf automatically generated from VICON data using
   VICON BodyBuilder and BodyLanguage model FoxedUp or BRILLIANT.MOD
:root
   order TX TY TZ RX RY RZ
   axis XYZ
   position 0 0 0  
   orientation 0 0 0 
:bonedata
  begin
     id 1 
     name lhipjoint
     direction 0.625129 -0.738222 0.253461 
     length 2.5165 
     axis 0 0 0  XYZ
  end
  begin
     id 2 
     name lfemur
     direction 0.34202 -0.939693 0  
     length 7.54288  
     axis 0 0 20  XYZ
    dof rx ry rz
    limits (-160.0 20.0)
           (-70.0 70.0)
           (-60.0 70.0)
  end
  begin
     id 3 
     name ltibia
     direction 0.34202 -0.939693 0   
     length 7.71864   
     axis 0 0 20   XYZ
    dof rx
    limits (-10.0 170.0)
  end
  begin
     id 4 
     name lfoot
     direction 0.0772037 -0.212115 0.97419   
     length 2.18429   
     axis -90 7.62852e-016 20   XYZ
    dof rx rz
    limits (-45.0 90.0)
           (-70.0 20.0)
  end
  begin
     id 5 
     name ltoes
     direction 1.53513e-011 -4.21834e-011 1   
     length 1.09718   
     axis -90 7.62852e-016 20   XYZ
    dof rx
    limits (-90.0 20.0)
  end
  begin
     id 6 
     name rhipjoint
     direction -0.621946 -0.740623 0.254285   
     length 2.50835  
     axis 0 0 0  XYZ 
  end
  begin
     id 7 
     name rfemur
     direction -0.34202 -0.939693 0   
     length 7.43366   
     axis 0 0 -20   XYZ
    dof rx ry rz
    limits (-160.0 20.0)
           (-70.0 70.0)
           (-70.0 60.0)
  end
  begin
     id 8 
     name rtibia
     direction -0.34202 -0.939693 0   
     length 7.77122   
     axis 0 0 -20   XYZ
    dof rx
    limits (-10.0 170.0)
 end
 begin
     id 9 
     name rfoot
     direction -0.082694 -0.2272 0.970331   
     length 2.2293  
     axis -90 -7.62852e-016 -20   XYZ
    dof rx rz
    limits (-45.0 90.0)
           (-20.0 70.0)
  end
  begin
     id 10 
     name rtoes
     direction -1.53565e-011 -4.21695e-011 1   
     length 1.1178   
     axis -90 -7.62852e-016 -20   XYZ
    dof rx
    limits (-90.0 20.0)
  end
  begin
     id 11 
     name lowerback
     direction -0.000695208 0.988391 -0.151929   
     length 1.95077   
     axis 0 0 0   XYZ
    dof rx ry rz
    limits (-20.0 45.0)
           (-30.0 30.0)
           (-30.0 30.0)
  end
  begin
     id 12 
     name upperback
     direction -0.00268925 0.999885 -0.0149203   
     length 1.96246   
     axis 0 0 0   XYZ
    dof rx ry rz
    limits (-20.0 45.0)
           (-30.0 30.0)
           (-30.0 30.0)
  end
  begin
     id 13 
     name thorax
     direction -0.000848408 0.998481 0.0550912   
     length 2.00867   
     axis 0 0 0   XYZ
    dof rx ry rz
    limits (-20.0 45.0)
           (-30.0 30.0)
           (-30.0 30.0)
  end
  begin
     id 14 
     name lowerneck
     direction -0.00577709 0.998999 0.0443608   
     length 1.75762   
     axis 0 0 0   XYZ
    dof rx ry rz
    limits (-20.0 45.0)
           (-30.0 30.0)
           (-30.0 30.0)
  end
  begin
     id 15 
     name upperneck
     direction 0.0320945 0.999136 0.0264105   
     length 1.72601   
     axis 0 0 0   XYZ
    dof rx ry rz
    limits (-20.0 45.0)
           (-30.0 30.0)
           (-30.0 30.0)
  end
  begin
     id 16
     name head
     direction 0.0120552 0.999916 0.00480151  
     length 1.79973  
     axis 0 0 0   XYZ
    dof rx ry rz
    limits (-20.0 45.0)
           (-30.0 30.0)
           (-30.0 30.0)
  end
  begin
     id 17 
     name lclavicle
     direction 0.909 0.371533 -0.188897  
     length 3.47956  
     axis 0 0 0   XYZ
    dof ry rz
    limits (-20.0 10.0)
           (0.0 20.0)
  end
  begin
     id 18 
     name lhumerus
     direction 1 -4.48963e-011 -6.48352e-028   
     length 5.52302   
     axis 180 -30 -90   XYZ
    dof rx ry rz
    limits (-60.0 90.0)
           (-90.0 90.0)
           (-90.0 90.0)
  end
  begin
     id 19
     name lradius
     direction 1 -4.48968e-011 -4.78536e-027   
     length 3.58675   
     axis 180 -30 -90   XYZ
    dof rx
    limits (-10.0 170.0)
  end
  begin
     id 20
     name lwrist
     direction 1 -4.48942e-011 -9.9435e-027   
     length 1.79337   
     axis 8.54312e-015 90 90   XYZ
    dof ry
    limits (-180.0 0.0)
 end
  begin
     id 21 
     name lhand
     direction 1 -4.4904e-011 -1.9887e-026   
     length 0.536412   
     axis 1.26896e-014 90 90   XYZ
    dof rx rz
    limits (-90.0 90.0)
           (-45.0 45.0)
  end
  begin
     id 22 
     name lfingers
     direction 1 -4.48893e-011 -3.9774e-026   
     length 0.432469   
     axis 2.53792e-014 90 90   XYZ
    dof rx
    limits (0.0 90.0)
  end
  begin
     id 23
     name lthumb
     direction 0.707107 -6.34934e-011 0.707107   
     length 0.620942   
     axis -90 45 2.85299e-015   XYZ
    dof rx rz
    limits (-45.0 45.0)
           (-45.0 45.0)
  end
  begin
     id 24 
     name rclavicle
     direction -0.89595 0.416672 -0.153813   
     length 3.44099  
     axis 0 0 0   XYZ 
    dof ry rz
    limits (-10.0 20.0)
           (-20.0 0.0)
  end
  begin
     id 25 
     name rhumerus
     direction -1 -4.48952e-011 5.57804e-028  
     length 5.8478   
     axis 180 30 90   XYZ
    dof rx ry rz
    limits (-90.0 60.0)
           (-90.0 90.0)
           (-90.0 90.0)
  end
  begin
     id 26 
     name rradius
     direction -1 -4.48967e-011 -7.93646e-027   
     length 3.62717   
     axis 180 30 90   XYZ
    dof rx
    limits (-10.0 170.0)
  end
  begin
     id 27 
     name rwrist
     direction -1 -4.49008e-011 -9.9435e-027   
     length 1.81359   
     axis 8.54312e-015 -90 -90   XYZ
    dof ry
    limits (-180.0 0.0)
  end
  begin
     id 28
     name rhand
     direction -1 -4.48812e-011 -1.9887e-026   
     length 0.650516   
     axis 1.26896e-014 -90 -90   XYZ
    dof rx rz
    limits (-90.0 90.0)
           (-45.0 45.0)
  end
  begin
     id 29
     name rfingers
     direction -1 -4.49228e-011 -3.9774e-026   
     length 0.524463   
     axis 2.53792e-014 -90 -90   XYZ
    dof rx
    limits (0.0 90.0)
  end
  begin
     id 30
     name rthumb
     direction -0.707107 -6.34912e-011 0.707107   
     length 0.753027   
     axis -90 -45 -2.85299e-015   XYZ
    dof rx rz
    limits (-45.0 45.0)
           (-45.0 45.0)
  end
:hierarchy
  begin
    root lhipjoint rhipjoint lowerback
    lhipjoint lfemur
    lfemur ltibia
    ltibia lfoot
    lfoot ltoes
    rhipjoint rfemur
    rfemur rtibia
    rtibia rfoot
    rfoot rtoes
    lowerback upperback
    upperback thorax
    thorax lowerneck lclavicle rclavicle
    lowerneck upperneck
    upperneck head
    lclavicle lhumerus
    lhumerus lradius
    lradius lwrist
    lwrist lhand lthumb
    lhand lfingers
    rclavicle rhumerus
    rhumerus rradius
    rradius rwrist
    rwrist rhand rthumb
    rhand rfingers
  end

#!OML:ASF F:\VICON\USERDATA\INSTALL\rory3\rory3.ASF
:FULLY-SPECIFIED
:DEGREES
49
root 0.120706 17.2099 -3.0839 4.98647 -7.10796 -8.84316
lowerback 18.3214 -0.738295 6.50373
upperback 1.70329 0.54392 2.36515
thorax -8.40573 0.0685078 -1.26811
lowerneck -3.63671 1.64329 1.15597
upperneck -10.2661 1.99021 -2.44047
head -2.58827 1.00772 -0.997301
rclavicle 3.67752e-015 -1.88845e-014
rhumerus -28.95 25.7091 -78.1719
rradius 106.63
rwrist -12.1996
rhand -39.9348 31.1411
rfingers 7.12502
rthumb -12.9049 1.56009
lclavicle 3.67752e-015 -1.88845e-014
lhumerus -47.1642 -13.3783 95.5954
lradius 104.863
lwrist 28.235
lhand -36.6304 11.6252
lfingers 7.12502
lthumb -9.7181 41.381
rfemur -11.0897 3.05433 34.9592
rtibia 41.3911
rfoot -18.2087 -5.53023
rtoes -13.1177
lfemur -27.4422 16.3558 -5.69689
ltibia 113.636
lfoot 8.97206 -8.72324
ltoes -15.8088
50
root 0.130578 17.2472 -2.57913 5.65368 -7.25065 -8.98526
lowerback 17.5367 -0.345713 6.81865
upperback 1.58786 1.04931 2.2528
thorax -8.05564 0.306253 -1.68855
lowerneck -3.76557 1.38888 1.18599
upperneck -10.202 1.6613 -2.28662
head -2.55107 0.838527 -0.947457
rclavicle -2.50966e-014 -2.78299e-014
rhumerus -27.9515 25.1522 -77.4129
rradius 107.839
rwrist -12.3381
rhand -38.9792 32.5465
rfingers 7.12502
rthumb -11.9836 2.90956
lclavicle -2.50966e-014 -2.78299e-014
lhumerus -48.2222 -13.6135 95.7314
lradius 105.152
lwrist 28.8194
lhand -35.8006 11.0677
lfingers 7.12502
lthumb -8.91739 40.8592
rfemur -9.18106 3.45214 34.8014
rtibia 40.0293
rfoot -17.3855 -4.92328
rtoes -13.5437
lfemur -30.5406 16.3913 -6.49792
ltibia 112.953
lfoot 7.70654 -8.68036
ltoes -29.2602
51
root 0.137771 17.3086 -2.05709 6.39788 -7.71783 -9.31457
lowerback 16.7591 0.135597 7.094
upperback 1.43346 1.66801 2.19722
thorax -7.73545 0.601408 -2.03821
lowerneck -4.38584 1.23965 1.12151
upperneck -9.59567 1.48941 -1.97509
head -2.24522 0.744293 -0.82192
rclavicle 2.18166e-014 1.66979e-014
rhumerus -27.1283 24.8004 -76.8238
rradius 109.242
rwrist -12.5123
rhand -39.2385 33.0995
rfingers 7.12502
rthumb -12.2336 3.47731
lclavicle 2.18166e-014 1.66979e-014
lhumerus -49.4331 -13.561 95.7801
lradius 105.708
lwrist 29.1149
lhand -35.9644 12.2248
lfingers 7.12502
lthumb -9.07541 42.0095
rfemur -7.33538 4.16641 34.8347
rtibia 38.634
rfoot -16.0985 -4.44025
rtoes -14.7716
lfemur -33.3981 16.6699 -7.01954
ltibia 111.76
lfoot 6.34153 -8.63694
ltoes -14.5078
52
root 0.143779 17.4032 -1.53491 6.77886 -8.01914 -9.54563
lowerback 16.5866 0.525658 7.30397
upperback 1.22153 2.21093 2.10424
thorax -7.81258 0.847438 -2.37589
lowerneck -4.55799 1.09215 1.09355
upperneck -9.26494 1.31744 -1.66184
head -2.11077 0.652409 -0.712231
rclavicle 4.14466e-014 -4.11484e-014
rhumerus -26.93 24.3466 -76.5202
rradius 110.753
rwrist -12.5774
rhand -39.6456 33.8487
rfingers 7.12502
rthumb -12.6262 4.25034
lclavicle 4.14466e-014 -4.11484e-014
lhumerus -50.7884 -13.4785 95.7921
lradius 106.163
lwrist 29.1354
lhand -36.4377 12.9166
lfingers 7.12502
lthumb -9.53212 42.6809
rfemur -5.20294 4.6891 34.8021
rtibia 37.0865
rfoot -14.3312 -3.94675
rtoes -16.7557
lfemur -36.2207 16.3347 -7.71286
ltibia 109.989
lfoot 5.74389 -8.36171
ltoes -12.8395
53
root 0.150798 17.5095 -1.01254 6.84983 -7.93271 -9.41922
lowerback 16.6582 0.800949 7.37174
upperback 1.01281 2.5904 1.89533
thorax -8.03216 1.0115 -2.72818
lowerneck -4.2506 0.830948 1.06168
upperneck -9.42812 0.994257 -1.31497
head -2.22376 0.486601 -0.599498
rclavicle 3.18055e-015 -2.8625e-014
rhumerus -26.948 23.8688 -76.3335
rradius 112.104
rwrist -12.2941
rhand -39.4571 32.0313
rfingers 7.12502
rthumb -12.4444 2.42178
lclavicle 3.18055e-015 -2.8625e-014
lhumerus -52.252 -13.5209 95.8838
lradius 106.34
lwrist 28.7447
lhand -36.3178 10.8679
lfingers 7.12502
lthumb -9.4165 40.6376
rfemur -2.89847 4.78011 34.4114
rtibia 35.4388
rfoot -12.1028 -3.27563
rtoes -19.1524
lfemur -38.5895 15.2631 -8.74065
ltibia 107.683
lfoot 5.64823 -7.96845
ltoes -11.9272
54
root 0.160298 17.6076 -0.480276 6.93243 -7.79691 -9.41443
lowerback 16.5532 1.04867 7.60689
upperback 0.861007 2.94611 1.71357
thorax -8.08316 1.16557 -3.13385
lowerneck -3.91318 0.576445 1.0528
upperneck -9.72197 0.677552 -1.0082
head -2.38475 0.323259 -0.502683
rclavicle -2.23633e-014 -1.45113e-014
rhumerus -26.6962 23.4425 -76.2022
rradius 113.251
rwrist -12.3336
rhand -39.7376 30.3904
rfingers 7.12502
rthumb -12.7148 0.797507
lclavicle -2.23633e-014 -1.45113e-014
lhumerus -53.4403 -13.491 95.8872
lradius 106.434
lwrist 28.3023
lhand -36.346 9.30201
lfingers 7.12502
lthumb -9.44363 39.0704
rfemur -0.560323 4.90545 34.1356
rtibia 33.6228
rfoot -9.4372 -2.41255
rtoes -20.0255
lfemur -40.1644 14.2548 -9.36343
ltibia 105.061
lfoot 4.98564 -7.80702
ltoes -10.9147
55
root 0.171375 17.6927 0.0597993 7.1276 -7.81073 -9.22125
lowerback 16.1828 1.39257 7.65018
upperback 0.67791 3.35887 1.40437
thorax -8.01019 1.35679 -3.56941
lowerneck -3.65855 0.371473 1.17868
upperneck -9.77063 0.431062 -0.654773
head -2.44886 0.188657 -0.411086
rclavicle -3.77194e-014 -1.35174e-014
rhumerus -26.7642 22.8253 -76.2432
rradius 114.352
rwrist -12.6456
rhand -41.2184 32.3164
rfingers 7.12502
rthumb -14.142 2.81774
lclavicle -3.77194e-014 -1.35174e-014
lhumerus -54.4582 -13.5394 95.6747
lradius 106.536
lwrist 27.9406
lhand -36.5009 9.92435
lfingers 7.12502
lthumb -9.59315 39.6859
rfemur 1.76637 5.19254 33.5989
rtibia 31.533
rfoot -6.44492 -1.44182
rtoes -20.142
lfemur -41.3519 13.3043 -10.1452
ltibia 102.14
lfoot 3.10401 -7.65729
ltoes -12.671
56
root 0.179161 17.7941 0.606261 7.27438 -7.65624 -9.01901
lowerback 15.7935 1.61547 7.62549
upperback 0.588382 3.59814 1.16388
thorax -7.84774 1.4749 -3.84821
lowerneck -3.65695 0.199244 1.14792
upperneck -9.70541 0.226865 -0.313004
head -2.42934 0.0803628 -0.295253
rclavicle -8.44835e-015 -2.78299e-015
rhumerus -26.8813 22.4044 -76.2373
rradius 115.364
rwrist -12.9532
rhand -42.2017 35.8802
rfingers 7.12502
rthumb -15.0894 6.45015
lclavicle -8.44835e-015 -2.78299e-015
lhumerus -55.3174 -13.1892 95.3757
lradius 106.636
lwrist 27.5013
lhand -36.2285 10.3592
lfingers 7.12502
lthumb -9.33029 40.1327
rfemur 4.09122 5.3936 33.0902
rtibia 29.3046
rfoot -3.06761 -0.706813
rtoes -19.8666
lfemur -42.6528 12.0154 -10.866
ltibia 98.83
lfoot 1.01358 -7.52159
ltoes -16.8155
57
root 0.187293 17.9155 1.16094 7.3684 -7.10898 -8.93972
lowerback 15.379 1.6182 7.79241
upperback 0.629122 3.5797 1.03656
thorax -7.55495 1.47323 -4.05221
lowerneck -3.92245 0.00892414 0.959271
upperneck -9.70021 -0.00529956 0.00255997
head -2.38189 -0.0361777 -0.160866
rclavicle -1.07344e-014 -9.14409e-015
rhumerus -26.6718 22.2366 -76.1126
rradius 116.088
rwrist -13.17
rhand -41.3243 37.3587
rfingers 7.12502
rthumb -14.2441 7.86717
lclavicle -1.07344e-014 -9.14409e-015
lhumerus -55.9644 -12.5313 95.0378
lradius 106.717
lwrist 27.0536
lhand -35.288 10.0525
lfingers 7.12502
lthumb -8.42268 39.8645
rfemur 6.33426 5.23744 32.7805
rtibia 27.0395
rfoot 1.13471 -0.224336
rtoes -18.5059
lfemur -44.0127 10.3213 -11.2988
ltibia 95.1244
lfoot 2.38082 -7.06356
ltoes -11.1382
58
root 0.183717 17.9958 1.63771 7.02396 -4.69951 -8.67024
lowerback 16.1388 0.873646 8.0765
upperback 0.533637 2.72416 0.983452
thorax -8.17496 1.01729 -4.12842
lowerneck -4.50369 -0.0986648 0.805548
upperneck -9.37268 -0.137634 0.223388
head -2.172 -0.100114 -0.064143
rclavicle 7.95139e-015 7.15625e-015
rhumerus -26.5476 22.1817 -76.1209
rradius 116.752
rwrist -13.1349
rhand -40.5314 36.8738
rfingers 7.12502
rthumb -13.48 7.33
lclavicle 7.95139e-015 7.15625e-015
lhumerus -56.593 -11.7024 94.7093
lradius 106.69
lwrist 26.5005
lhand -34.0382 10.2739
lfingers 7.12502
lthumb -7.21644 40.1308
rfemur 8.78527 4.21898 32.9049
rtibia 24.3164
rfoot 5.90521 -1.39404
rtoes -15.0433
lfemur -45.5598 6.86288 -11.6119
ltibia 91.4495
lfoot 2.95314 -6.74826
ltoes -11.7815
59
root 0.182443 18.0694 2.17195 7.21383 -3.54156 -8.26375
lowerback 15.8495 0.651795 7.9785
upperback 0.415578 2.37874 0.811884
thorax -8.18188 0.849019 -4.17583
lowerneck -5.20242 -0.163955 0.593666
upperneck -8.86468 -0.206006 0.550624
head -1.88524 -0.130549 0.0729733
rclavicle 1.26228e-014 4.77083e-015
rhumerus -26.7077 22.065 -76.2397
rradius 117.466
rwrist -12.6606
rhand -40.491 36.3224
rfingers 7.12502
rthumb -13.4411 6.77602
lclavicle 1.26228e-014 4.77083e-015
lhumerus -57.2911 -10.8671 94.3734
lradius 106.653
lwrist 25.8677
lhand -34.3507 8.99307
lfingers 7.12502
lthumb -7.51813 38.8395
rfemur 11.0897 4.25314 32.6162
rtibia 21.3323
rfoot 10.8536 -2.91521
rtoes -10.2138
lfemur -46.5514 4.81051 -12.0704
ltibia 87.4878
lfoot 2.44319 -6.60531
ltoes -15.014
60
root 0.194156 18.1723 2.84283 7.72494 -5.89784 -8.18543
lowerback 13.8109 1.72568 7.48423
upperback 0.690324 3.48674 0.523683
thorax -6.60613 1.47907 -4.32623
lowerneck -5.74391 -0.251315 0.46637
upperneck -8.54238 -0.306205 0.855502
head -1.68893 -0.178879 0.18732
rclavicle -1.63997e-014 -1.55052e-014
rhumerus -26.8416 21.9617 -76.3465
rradius 118.135
rwrist -12.0949
rhand -40.1162 36.1041
rfingers 7.12502
rthumb -13.0798 6.53424
lclavicle -1.63997e-014 -1.55052e-014
lhumerus -58.0362 -9.92549 93.9345
lradius 106.93
lwrist 25.2158
lhand -35.0389 9.25148
lfingers 7.12502
lthumb -8.18231 39.0731
rfemur 13.8492 7.45809 32.0155
rtibia 18.308
rfoot 16.257 -4.56533
rtoes -3.70418
lfemur -45.8761 6.40533 -12.2829
ltibia 82.9975
lfoot 1.38462 -6.80705
ltoes -16.1891
61
root 0.18907 18.2586 3.40406 7.52993 -5.33302 -7.7341
lowerback 13.6525 1.66295 7.06322
upperback 0.708197 3.31425 0.375263
thorax -6.53366 1.40988 -4.20898
lowerneck -6.07431 -0.337124 0.177008
upperneck -8.1641 -0.39482 1.19836
head -1.51166 -0.216603 0.338992
rclavicle 1.68967e-015 1.39149e-014
rhumerus -26.9863 22.1884 -76.4617
rradius 118.615
rwrist -11.6239
rhand -39.8131 34.8623
rfingers 7.12502
rthumb -12.7876 5.27393
lclavicle 1.68967e-015 1.39149e-014
lhumerus -58.928 -8.95579 93.4925
lradius 107.325
lwrist 24.8746
lhand -35.658 11.031
lfingers 7.12502
lthumb -8.77981 40.8284
rfemur 16.7903 7.58215 31.7565
rtibia 15.0839
rfoot 21.9091 -6.75905
rtoes 0.980224
lfemur -45.8709 4.9961 -12.5484
ltibia 78.3465
lfoot 1.38704 -6.93861
ltoes -14.3032
62
root 0.190125 18.3284 3.95503 7.35365 -4.56819 -7.50782
lowerback 13.6485 1.47624 7.01743
upperback 0.716348 3.05343 0.281902
thorax -6.55113 1.28251 -4.2364
lowerneck -6.38641 -0.383639 -0.296603
upperneck -7.90702 -0.41445 1.65234
head -1.37756 -0.216006 0.555563
rclavicle -4.01545e-014 -2.38542e-015
rhumerus -27.2949 22.4588 -76.6578
rradius 119.123
rwrist -11.3506
rhand -39.3649 34.4769
rfingers 7.12502
rthumb -12.3555 4.862
lclavicle -4.01545e-014 -2.38542e-015
lhumerus -59.5951 -8.04184 93.0428
lradius 107.516
lwrist 24.704
lhand -36.0064 10.6435
lfingers 7.12502
lthumb -9.116 40.4265
rfemur 19.9929 7.53279 31.7795
rtibia 11.3379
rfoot 24.9199 -7.7908
rtoes 0.27219
lfemur -45.6434 3.48959 -12.5112
ltibia 73.6599
lfoot 1.04446 -6.88302
ltoes -12.7265
63
root 0.19414 18.3908 4.51576 7.43709 -3.90337 -7.66515
lowerback 13.2334 1.32393 7.33355
upperback 0.784171 2.86079 0.263357
thorax -6.25371 1.19418 -4.37927
lowerneck -6.76294 -0.430661 -0.536092
upperneck -7.75619 -0.451677 1.95688
head -1.26736 -0.228538 0.687298
rclavicle 2.24627e-014 1.94809e-014
rhumerus -27.6363 22.6638 -76.883
rradius 119.566
rwrist -11.0777
rhand -39.1924 35.9417
rfingers 7.12502
rthumb -12.1892 6.31686
lclavicle 2.24627e-014 1.94809e-014
lhumerus -60.0765 -7.20173 92.5647
lradius 107.711
lwrist 24.5256
lhand -35.8222 9.59913
lfingers 7.12502
lthumb -8.93819 39.3898
rfemur 22.7278 7.66322 32.1815
rtibia 8.11051
rfoot 27.281 -8.42906
rtoes -4.05469
lfemur -45.5007 2.17989 -12.043
ltibia 68.9035
lfoot 0.961243 -6.84755
ltoes -13.302
